<svg width="18" height="18" viewBox="0 0 18 18" fill="none" xmlns="http://www.w3.org/2000/svg">
<path d="M9.0006 9.96508C4.99327 9.96508 1.64939 8.50562 0.857183 6.56348C0.738574 6.84953 0.675781 7.14574 0.675781 7.44892C0.675781 9.81793 4.40213 11.7391 9.0006 11.7391C13.5972 11.7391 17.3248 9.81856 17.3248 7.44892C17.3248 7.1451 17.2588 6.84953 17.144 6.56348C16.3493 8.50562 13.0054 9.96508 9.0006 9.96508Z" fill="#D9D9D9"/>
<path d="M9.0006 13.0465C4.99327 13.0465 1.64939 11.5864 0.857183 9.64551C0.738574 9.93156 0.675781 10.2278 0.675781 10.5322C0.675781 12.9 4.40213 14.8212 9.0006 14.8212C13.5972 14.8212 17.3248 12.9006 17.3248 10.5322C17.3248 10.2278 17.2588 9.93156 17.144 9.64551C16.3493 11.587 13.0054 13.0465 9.0006 13.0465Z" fill="#D9D9D9"/>
<path d="M9.0006 16.2258C4.99327 16.2258 1.64939 14.7676 0.857183 12.8242C0.738574 13.1103 0.675781 13.4071 0.675781 13.7109C0.675781 16.0799 4.40213 17.9999 9.0006 17.9999C13.5972 17.9999 17.3248 16.0806 17.3248 13.7109C17.3248 13.4071 17.2588 13.1103 17.144 12.8242C16.3493 14.7676 13.0054 16.2258 9.0006 16.2258Z" fill="#D9D9D9"/>
<path d="M9.00192 8.57789C13.5992 8.57789 17.3261 6.65767 17.3261 4.28895C17.3261 1.92023 13.5992 0 9.00192 0C4.4046 0 0.677734 1.92023 0.677734 4.28895C0.677734 6.65767 4.4046 8.57789 9.00192 8.57789Z" fill="#D9D9D9"/>
</svg>
