<svg width="104" height="104" viewBox="0 0 104 104" fill="none" xmlns="http://www.w3.org/2000/svg">
<path fill-rule="evenodd" clip-rule="evenodd" d="M51.7105 0.355743C23.2238 0.355743 0.130859 23.4487 0.130859 51.9353C0.130859 80.422 23.2238 103.515 51.7105 103.515C80.1971 103.515 103.29 80.422 103.29 51.9353C103.29 23.4487 80.1971 0.355743 51.7105 0.355743ZM40.3721 24.5925C43.3058 24.4589 44.2437 24.4263 51.7108 24.4263C59.1803 24.4263 60.1146 24.4589 63.0484 24.5925C65.977 24.7266 67.9772 25.1902 69.7309 25.8705C71.5419 26.5726 73.0722 27.5125 74.6024 29.0427C76.1326 30.5717 77.0725 32.1065 77.7774 33.9159C78.4537 35.665 78.9179 37.664 79.0554 40.5926C79.1873 43.527 79.2216 44.4646 79.2216 51.9357C79.2216 59.4068 79.1873 60.3421 79.0554 63.2764C78.9179 66.2039 78.4537 68.2035 77.7774 69.9532C77.0725 71.7619 76.1326 73.2967 74.6024 74.8258C73.0739 76.356 71.5414 77.2982 69.7326 78.0008C67.9823 78.6811 65.981 79.1448 63.0524 79.2789C60.1181 79.4124 59.1833 79.4451 51.7117 79.4451C44.2411 79.4451 43.3041 79.4124 40.3698 79.2789C37.4417 79.1448 35.4421 78.6811 33.6919 78.0008C31.8837 77.2982 30.3489 76.356 28.8204 74.8258C27.2908 73.2967 26.3509 71.7619 25.6477 69.9526C24.9679 68.2035 24.5043 66.2044 24.3696 63.2758C24.2366 60.3415 24.2034 59.4068 24.2034 51.9357C24.2034 44.4646 24.2378 43.5264 24.369 40.592C24.5009 37.6646 24.9651 35.665 25.6471 33.9153C26.352 32.1065 27.2919 30.5717 28.8221 29.0427C30.3512 27.513 31.886 26.5731 33.6953 25.8705C35.4444 25.1902 37.4435 24.7266 40.3721 24.5925ZM51.7108 24.4263C51.7122 24.4263 51.7137 24.4263 51.7151 24.4263H51.7065C51.7079 24.4263 51.7094 24.4263 51.7108 24.4263Z" fill="white"/>
<path fill-rule="evenodd" clip-rule="evenodd" d="M49.2541 29.3836C49.7333 29.3829 50.2488 29.3831 50.805 29.3834L51.7219 29.3836C59.0669 29.3836 59.9375 29.41 62.838 29.5418C65.5202 29.6645 66.9759 30.1126 67.9456 30.4892C69.2294 30.9878 70.1446 31.5838 71.1069 32.5467C72.0697 33.5095 72.6657 34.4265 73.1655 35.7102C73.542 36.6788 73.9908 38.1345 74.1128 40.8167C74.2447 43.7166 74.2733 44.5878 74.2733 51.9293C74.2733 59.2709 74.2447 60.142 74.1128 63.042C73.9902 65.7241 73.542 67.1799 73.1655 68.1484C72.6669 69.4322 72.0697 70.3463 71.1069 71.3086C70.144 72.2714 69.2299 72.8674 67.9456 73.366C66.977 73.7443 65.5202 74.1913 62.838 74.314C59.9381 74.4458 59.0669 74.4744 51.7219 74.4744C44.3763 74.4744 43.5058 74.4458 40.6058 74.314C37.9236 74.1902 36.4679 73.742 35.4977 73.3655C34.2139 72.8668 33.2969 72.2708 32.3341 71.308C31.3712 70.3452 30.7752 69.4305 30.2755 68.1461C29.8989 67.1776 29.4502 65.7219 29.3281 63.0397C29.1963 60.1397 29.1699 59.2686 29.1699 51.9224C29.1699 44.5763 29.1963 43.7097 29.3281 40.8098C29.4507 38.1276 29.8989 36.6719 30.2755 35.7022C30.7741 34.4184 31.3712 33.5015 32.3341 32.5386C33.2969 31.5758 34.2139 30.9798 35.4977 30.48C36.4674 30.1018 37.9236 29.6547 40.6058 29.5315C43.1436 29.4169 44.127 29.3825 49.2541 29.3768V29.3836ZM66.4104 33.9513C64.5879 33.9513 63.1092 35.4283 63.1092 37.2513C63.1092 39.0738 64.5879 40.5525 66.4104 40.5525C68.2329 40.5525 69.7115 39.0738 69.7115 37.2513C69.7115 35.4288 68.2329 33.9502 66.4104 33.9502V33.9513ZM37.5922 51.9356C37.5922 44.1338 43.9177 37.8084 51.7195 37.8084H51.7189C59.5207 37.8084 65.8444 44.1338 65.8444 51.9356C65.8444 59.7374 59.5212 66.06 51.7195 66.06C43.9177 66.06 37.5922 59.7374 37.5922 51.9356Z" fill="white"/>
<path fill-rule="evenodd" clip-rule="evenodd" d="M51.7147 42.7657C56.7787 42.7657 60.8845 46.8709 60.8845 51.9355C60.8845 56.9995 56.7787 61.1053 51.7147 61.1053C46.6501 61.1053 42.5449 56.9995 42.5449 51.9355C42.5449 46.8709 46.6501 42.7657 51.7147 42.7657V42.7657Z" fill="white"/>
</svg>
