<svg width="16" height="19" viewBox="0 0 16 19" fill="none" xmlns="http://www.w3.org/2000/svg">
<path d="M10.9559 12.6845L10.9559 12.6845L10.9618 12.6874C11.9127 13.1643 12.9411 13.4869 14.0144 13.6449C14.4621 13.7108 14.7735 14.1297 14.7076 14.5774L14.2598 17.6196C14.1939 18.0674 13.775 18.3788 13.3273 18.3129C5.18949 17.1151 -0.458053 9.51817 0.739718 1.38036C0.805614 0.932647 1.22453 0.621227 1.67224 0.687123L4.7232 1.13618C5.17091 1.20208 5.48233 1.62099 5.41643 2.0687C5.25888 3.13914 5.27208 4.21644 5.45572 5.26917C5.50438 5.58499 5.37814 5.88866 5.13101 6.07237L5.10283 6.09332L5.07785 6.11801L3.42602 7.75045L3.19988 7.97394L3.30635 8.27352C4.1606 10.6772 5.39933 12.3417 7.46654 13.8693L7.72346 14.0592L8.00371 13.9058L10.093 12.7626L10.1256 12.7447L10.1552 12.7222C10.3409 12.5814 10.6759 12.5394 10.9559 12.6845Z" fill="#D9D9D9" stroke="#D9D9D9"/>
</svg>
