<svg width="104" height="104" viewBox="0 0 104 104" fill="none" xmlns="http://www.w3.org/2000/svg">
<path fill-rule="evenodd" clip-rule="evenodd" d="M51.8076 103.5C80.2367 103.5 103.283 80.4536 103.283 52.0245C103.283 23.5953 80.2367 0.548935 51.8076 0.548935C23.3784 0.548935 0.332031 23.5953 0.332031 52.0245C0.332031 80.4536 23.3784 103.5 51.8076 103.5ZM42.3706 75.6174C43.6226 75.6174 44.1947 75.0604 44.8862 74.3872L44.9444 74.3305L51.1289 68.3169L63.9941 77.8218C66.3613 79.128 68.0698 78.4517 68.6595 75.624L77.1036 35.8322C77.9682 32.3661 75.7824 30.794 73.5177 31.8221L23.9339 50.9414C20.5494 52.299 20.5691 54.1872 23.317 55.0286L36.0413 59L65.4995 40.4152C66.8901 39.5719 68.1665 40.0253 67.1189 40.955L43.2495 62.4954L43.2531 62.4981L43.2466 62.4942L42.3706 75.6174Z" fill="white"/>
</svg>
