<svg width="16" height="18" viewBox="0 0 16 18" fill="none" xmlns="http://www.w3.org/2000/svg">
<path d="M7.87064 8.67065C9.06183 8.67065 10.0933 8.24342 10.9361 7.4005C11.7789 6.55771 12.2061 5.52651 12.2061 4.33519C12.2061 3.14428 11.7789 2.11294 10.936 1.26988C10.093 0.427229 9.06169 0 7.87064 0C6.67931 0 5.6481 0.427229 4.80531 1.27001C3.96252 2.1128 3.53516 3.14414 3.53516 4.33519C3.53516 5.52651 3.96252 6.55785 4.80545 7.40064C5.64838 8.24329 6.67972 8.67065 7.87064 8.67065Z" fill="#D9D9D9"/>
<path d="M15.4577 13.8412C15.4333 13.4905 15.3842 13.1079 15.3118 12.7039C15.2388 12.2968 15.1447 11.912 15.0321 11.5603C14.9158 11.1968 14.7576 10.8378 14.562 10.4938C14.359 10.1368 14.1206 9.82586 13.8531 9.57002C13.5734 9.30237 13.2309 9.08717 12.8348 8.93021C12.4401 8.77406 12.0027 8.69496 11.5349 8.69496C11.3511 8.69496 11.1734 8.77035 10.8302 8.99379C10.619 9.13153 10.3719 9.29083 10.0962 9.46702C9.8604 9.61726 9.54097 9.75802 9.14642 9.88546C8.76149 10.01 8.37065 10.0732 7.98489 10.0732C7.59914 10.0732 7.20844 10.01 6.82309 9.88546C6.42896 9.75816 6.10953 9.6174 5.87401 9.46716C5.60086 9.29262 5.35367 9.13331 5.1393 8.99365C4.79652 8.77022 4.61868 8.69482 4.43494 8.69482C3.96692 8.69482 3.52966 8.77406 3.13512 8.93034C2.73933 9.08703 2.3967 9.30223 2.11668 9.57016C1.8493 9.82614 1.61076 10.1369 1.40807 10.4938C1.21265 10.8378 1.05444 11.1967 0.937988 11.5605C0.825516 11.9122 0.731445 12.2968 0.658386 12.7039C0.586014 13.1073 0.53685 13.4901 0.512543 13.8416C0.488647 14.186 0.476562 14.5435 0.476562 14.9045C0.476562 15.8441 0.775253 16.6048 1.36426 17.1658C1.94598 17.7194 2.71571 18.0002 3.65175 18.0002H12.3189C13.2549 18.0002 14.0244 17.7195 14.6062 17.1658C15.1954 16.6052 15.494 15.8444 15.494 14.9044C15.4939 14.5417 15.4817 14.184 15.4577 13.8412Z" fill="#D9D9D9"/>
</svg>
