<svg width="104" height="104" viewBox="0 0 104 104" fill="none" xmlns="http://www.w3.org/2000/svg">
<path fill-rule="evenodd" clip-rule="evenodd" d="M52.2944 0.34079C23.8078 0.34079 0.714844 23.4338 0.714844 51.9204C0.714844 80.407 23.8078 103.5 52.2944 103.5C80.7811 103.5 103.874 80.407 103.874 51.9204C103.874 23.4338 80.7811 0.34079 52.2944 0.34079ZM56.4953 68.2029C55.9867 68.7391 54.9938 68.8474 54.9938 68.8474H51.7054C51.7054 68.8474 44.4507 69.2753 38.0597 62.7457C31.0901 55.6218 24.9359 41.4876 24.9359 41.4876C24.9359 41.4876 24.5807 40.5604 24.9655 40.114C25.3988 39.6095 26.5801 39.5778 26.5801 39.5778L34.4403 39.5276C34.4403 39.5276 35.1804 39.6465 35.7105 40.0295C36.1491 40.3465 36.394 40.9355 36.394 40.9355C36.394 40.9355 37.6641 44.0894 39.3459 46.9421C42.6316 52.5129 44.16 53.7306 45.2741 53.1336C46.8994 52.2646 46.4124 45.2595 46.4124 45.2595C46.4124 45.2595 46.442 42.7185 45.5943 41.5853C44.9377 40.7083 43.6999 40.4521 43.1536 40.3808C42.7096 40.3227 43.4362 39.3137 44.378 38.862C45.7934 38.1831 48.2906 38.1435 51.2426 38.1726C53.5434 38.1964 54.2053 38.3363 55.1041 38.5503C57.19 39.0444 57.1249 40.6279 56.9844 44.0454C56.9424 45.0674 56.8936 46.2535 56.8936 47.6236C56.8936 47.9315 56.8844 48.2596 56.875 48.5973C56.8263 50.3481 56.7704 52.353 57.9457 53.0993C58.5485 53.4796 60.0205 53.1547 63.7044 47.0161C65.4508 44.1052 66.7586 40.6846 66.7586 40.6846C66.7586 40.6846 67.0465 40.0744 67.4905 39.8129C67.9453 39.5461 68.5588 39.628 68.5588 39.628L76.8308 39.5778C76.8308 39.5778 79.3172 39.2846 79.7182 40.3887C80.1407 41.543 78.7898 44.2426 75.41 48.6643C72.2039 52.8599 70.6437 54.4046 70.7869 55.7707C70.8916 56.769 71.9057 57.6719 73.8519 59.444C77.9146 63.1465 79.0037 65.0946 79.2653 65.5626C79.287 65.6014 79.303 65.63 79.3145 65.6487C81.1363 68.615 77.2936 68.8474 77.2936 68.8474L69.9447 68.9478C69.9447 68.9478 68.3678 69.2542 66.2904 67.8542C65.2021 67.1216 64.1388 65.9248 63.1259 64.785C61.5791 63.0442 60.1502 61.4361 58.9306 61.8159C56.8828 62.4552 56.9447 66.7845 56.9447 66.7845C56.9447 66.7845 56.9609 67.7116 56.4953 68.2029Z" fill="white"/>
</svg>
