<svg width="104" height="104" viewBox="0 0 104 104" fill="none" xmlns="http://www.w3.org/2000/svg">
<path fill-rule="evenodd" clip-rule="evenodd" d="M52.2964 0.355743C23.8098 0.355743 0.716797 23.4487 0.716797 51.9353C0.716797 80.422 23.8098 103.515 52.2964 103.515C80.783 103.515 103.876 80.422 103.876 51.9353C103.876 23.4487 80.783 0.355743 52.2964 0.355743ZM73.7925 34.2035C76.1598 34.8531 78.0242 36.7672 78.6569 39.1979C79.8067 43.6032 79.8067 52.7951 79.8067 52.7951C79.8067 52.7951 79.8067 61.9866 78.6569 66.3923C78.0242 68.823 76.1598 70.7371 73.7925 71.387C69.5023 72.5673 52.2976 72.5673 52.2976 72.5673C52.2976 72.5673 35.0928 72.5673 30.8023 71.387C28.435 70.7371 26.5706 68.823 25.9379 66.3923C24.7884 61.9866 24.7884 52.7951 24.7884 52.7951C24.7884 52.7951 24.7884 43.6032 25.9379 39.1979C26.5706 36.7672 28.435 34.8531 30.8023 34.2035C35.0928 33.0229 52.2976 33.0229 52.2976 33.0229C52.2976 33.0229 69.5023 33.0229 73.7925 34.2035Z" fill="white"/>
<path fill-rule="evenodd" clip-rule="evenodd" d="M47.1367 62.2512V45.058L60.8913 53.655L47.1367 62.2512Z" fill="white"/>
</svg>
